<svg xmlns="http://www.w3.org/2000/svg" xmlns:xlink="http://www.w3.org/1999/xlink" width="500" zoomAndPan="magnify" viewBox="0 0 375 374.999991" height="500" preserveAspectRatio="xMidYMid meet" version="1.0"><defs><clipPath id="eccec063fb"><path d="M 1 52.5 L 373 52.5 L 373 322.5 L 1 322.5 Z M 1 52.5 " clip-rule="nonzero"/></clipPath></defs><g clip-path="url(#eccec063fb)"><path fill="#ffffff" d="M 357.074219 151.816406 L 318.140625 307.5 L 18.609375 307.5 L 58.425781 148.183594 C 59.273438 144.84375 62.261719 142.5 65.71875 142.5 L 349.78125 142.5 C 352.125 142.5 354.261719 143.554688 355.699219 145.398438 C 357.132812 147.214844 357.632812 149.558594 357.074219 151.816406 Z M 16.5 75 C 16.5 70.867188 19.871094 67.5 24 67.5 L 74.742188 67.5 C 77.585938 67.5 80.164062 69.082031 81.421875 71.628906 L 92.292969 93.367188 C 93.550781 95.886719 96.160156 97.5 99 97.5 L 309 97.5 C 313.128906 97.5 316.5 100.867188 316.5 105 L 316.5 127.5 L 65.71875 127.5 C 55.378906 127.5 46.382812 134.5 43.894531 144.550781 L 16.5 254.089844 Z M 349.78125 127.5 L 331.5 127.5 L 331.5 105 C 331.5 92.578125 321.421875 82.5 309 82.5 L 103.628906 82.5 L 94.871094 64.921875 C 91.003906 57.273438 83.296875 52.5 74.742188 52.5 L 24 52.5 C 11.578125 52.5 1.5 62.578125 1.5 75 L 1.5 315 C 1.5 315.292969 1.648438 315.585938 1.675781 315.878906 C 1.734375 316.289062 1.792969 316.699219 1.941406 317.136719 C 2.117188 317.78125 2.410156 318.367188 2.761719 318.925781 C 2.90625 319.128906 2.9375 319.421875 3.082031 319.597656 C 3.171875 319.714844 3.316406 319.773438 3.40625 319.863281 C 3.902344 320.417969 4.488281 320.859375 5.132812 321.269531 C 5.398438 321.445312 5.601562 321.648438 5.894531 321.796875 C 6.832031 322.234375 7.886719 322.5 9 322.5 L 324 322.5 C 327.457031 322.5 330.445312 320.15625 331.265625 316.816406 L 371.605469 155.449219 C 373.304688 148.679688 371.8125 141.648438 367.503906 136.140625 C 363.226562 130.664062 356.753906 127.5 349.78125 127.5 " fill-opacity="1" fill-rule="nonzero"/></g><path fill="#ffffff" d="M 226.5 292.5 L 241.5 292.5 L 241.5 277.5 L 226.5 277.5 L 226.5 292.5 " fill-opacity="1" fill-rule="nonzero"/><path fill="#ffffff" d="M 256.5 292.5 L 271.5 292.5 L 271.5 277.5 L 256.5 277.5 L 256.5 292.5 " fill-opacity="1" fill-rule="nonzero"/><path fill="#ffffff" d="M 286.5 292.5 L 301.5 292.5 L 301.5 277.5 L 286.5 277.5 L 286.5 292.5 " fill-opacity="1" fill-rule="nonzero"/></svg>