<svg xmlns="http://www.w3.org/2000/svg" xmlns:xlink="http://www.w3.org/1999/xlink" width="500" zoomAndPan="magnify" viewBox="0 0 375 374.999991" height="500" preserveAspectRatio="xMidYMid meet" version="1.0"><defs><g/></defs><g fill="#000000" fill-opacity="1"><g transform="translate(12.145137, 327.733559)"><g><path d="M 23.21875 -36.1875 L 23.21875 -4.984375 C 23.21875 -4.179688 23.71875 -3.585938 24.71875 -3.203125 L 24.796875 -3.171875 C 25.453125 -2.960938 25.890625 -2.726562 26.109375 -2.46875 C 26.335938 -2.207031 26.453125 -1.859375 26.453125 -1.421875 C 26.453125 -0.890625 26.269531 -0.519531 25.90625 -0.3125 C 25.550781 -0.101562 24.875 0 23.875 0 L 10.40625 0 C 9.40625 0 8.722656 -0.101562 8.359375 -0.3125 C 8.003906 -0.519531 7.828125 -0.890625 7.828125 -1.421875 C 7.828125 -2.191406 8.410156 -2.800781 9.578125 -3.25 C 9.734375 -3.300781 9.851562 -3.34375 9.9375 -3.375 C 10.40625 -3.5625 10.707031 -3.757812 10.84375 -3.96875 C 10.988281 -4.175781 11.0625 -4.628906 11.0625 -5.328125 L 11.0625 -36.1875 Z M 32.03125 -36.1875 L 32.03125 -25.375 C 32.03125 -24.8125 31.863281 -24.351562 31.53125 -24 C 31.195312 -23.644531 30.765625 -23.46875 30.234375 -23.46875 C 29.160156 -23.46875 28.507812 -24.28125 28.28125 -25.90625 C 28.207031 -26.382812 28.140625 -26.757812 28.078125 -27.03125 C 27.722656 -28.582031 27.265625 -29.835938 26.703125 -30.796875 C 26.148438 -31.765625 25.5 -32.414062 24.75 -32.75 L 24.75 -36.1875 Z M 1.796875 -36.1875 L 9.0625 -36.1875 L 9.0625 -32.75 C 8.320312 -32.414062 7.671875 -31.765625 7.109375 -30.796875 C 6.554688 -29.835938 6.097656 -28.570312 5.734375 -27 C 5.679688 -26.75 5.625 -26.382812 5.5625 -25.90625 C 5.3125 -24.28125 4.648438 -23.46875 3.578125 -23.46875 C 2.941406 -23.46875 2.484375 -23.660156 2.203125 -24.046875 C 1.929688 -24.429688 1.796875 -25.148438 1.796875 -26.203125 Z M 1.796875 -36.1875 "/></g></g></g><g fill="#000000" fill-opacity="1"><g transform="translate(45.979344, 327.733559)"><g><path d="M 4.5 -9.984375 L 4.5 -30.609375 C 4.5 -31.390625 4.4375 -31.910156 4.3125 -32.171875 C 4.1875 -32.429688 3.925781 -32.660156 3.53125 -32.859375 C 3.425781 -32.910156 3.273438 -32.976562 3.078125 -33.0625 C 2.191406 -33.445312 1.75 -33.988281 1.75 -34.6875 C 1.75 -35.21875 1.914062 -35.597656 2.25 -35.828125 C 2.582031 -36.066406 3.148438 -36.1875 3.953125 -36.1875 L 17.359375 -36.1875 C 18.378906 -36.1875 19.070312 -36.078125 19.4375 -35.859375 C 19.8125 -35.640625 20 -35.273438 20 -34.765625 C 20 -33.992188 19.414062 -33.390625 18.25 -32.953125 C 18.0625 -32.890625 17.925781 -32.84375 17.84375 -32.8125 C 17.375 -32.625 17.066406 -32.421875 16.921875 -32.203125 C 16.785156 -31.984375 16.71875 -31.535156 16.71875 -30.859375 L 16.71875 -7.984375 C 16.71875 -6.210938 16.945312 -5.015625 17.40625 -4.390625 C 17.863281 -3.765625 18.703125 -3.394531 19.921875 -3.28125 L 19.9375 0.5 C 19.40625 0.519531 18.75 0.546875 17.96875 0.578125 C 17.1875 0.609375 16.71875 0.625 16.5625 0.625 C 12.40625 0.625 9.351562 -0.226562 7.40625 -1.9375 C 5.46875 -3.644531 4.5 -6.328125 4.5 -9.984375 Z M 21.46875 0.34375 L 21.46875 -3.171875 C 23.738281 -3.492188 25.359375 -4.304688 26.328125 -5.609375 C 27.296875 -6.910156 27.78125 -8.9375 27.78125 -11.6875 L 27.78125 -27.984375 C 27.78125 -28.898438 27.648438 -29.691406 27.390625 -30.359375 C 27.128906 -31.035156 26.75 -31.59375 26.25 -32.03125 C 25.96875 -32.257812 25.550781 -32.523438 25 -32.828125 C 24.050781 -33.347656 23.578125 -33.914062 23.578125 -34.53125 C 23.578125 -35.113281 23.742188 -35.535156 24.078125 -35.796875 C 24.410156 -36.054688 24.941406 -36.1875 25.671875 -36.1875 L 33.3125 -36.1875 C 34.039062 -36.1875 34.570312 -36.054688 34.90625 -35.796875 C 35.238281 -35.535156 35.40625 -35.113281 35.40625 -34.53125 C 35.40625 -33.9375 34.992188 -33.40625 34.171875 -32.9375 C 33.347656 -32.46875 32.769531 -32.066406 32.4375 -31.734375 C 32 -31.265625 31.679688 -30.695312 31.484375 -30.03125 C 31.296875 -29.363281 31.203125 -28.238281 31.203125 -26.65625 L 31.203125 -12.96875 C 31.203125 -8.625 30.453125 -5.4375 28.953125 -3.40625 C 27.460938 -1.382812 24.96875 -0.132812 21.46875 0.34375 Z M 21.46875 0.34375 "/></g></g></g><g fill="#000000" fill-opacity="1"><g transform="translate(82.065827, 327.733559)"><g><path d="M 24.203125 -36.1875 L 36.859375 -36.1875 C 37.640625 -36.1875 38.191406 -36.070312 38.515625 -35.84375 C 38.847656 -35.625 39.015625 -35.238281 39.015625 -34.6875 C 39.015625 -33.988281 38.582031 -33.453125 37.71875 -33.078125 C 37.476562 -32.984375 37.3125 -32.910156 37.21875 -32.859375 C 36.84375 -32.691406 36.59375 -32.488281 36.46875 -32.25 C 36.34375 -32.019531 36.28125 -31.570312 36.28125 -30.90625 L 36.28125 -5.1875 C 36.28125 -4.613281 36.34375 -4.207031 36.46875 -3.96875 C 36.59375 -3.738281 36.84375 -3.523438 37.21875 -3.328125 C 37.3125 -3.273438 37.476562 -3.203125 37.71875 -3.109375 C 38.582031 -2.734375 39.015625 -2.1875 39.015625 -1.46875 C 39.015625 -0.9375 38.847656 -0.554688 38.515625 -0.328125 C 38.191406 -0.109375 37.640625 0 36.859375 0 L 23.625 0 C 22.820312 0 22.253906 -0.113281 21.921875 -0.34375 C 21.585938 -0.582031 21.421875 -0.957031 21.421875 -1.46875 C 21.421875 -2.1875 21.851562 -2.734375 22.71875 -3.109375 C 22.957031 -3.203125 23.125 -3.273438 23.21875 -3.328125 C 23.601562 -3.523438 23.863281 -3.753906 24 -4.015625 C 24.132812 -4.273438 24.203125 -4.796875 24.203125 -5.578125 Z M 16.390625 0 L 14.8125 0 L 4.703125 -29.953125 C 4.648438 -30.097656 4.578125 -30.320312 4.484375 -30.625 C 4.046875 -32 3.476562 -32.84375 2.78125 -33.15625 C 2.5625 -33.257812 2.234375 -33.359375 1.796875 -33.453125 C 0.867188 -33.671875 0.40625 -34.140625 0.40625 -34.859375 C 0.40625 -35.328125 0.550781 -35.664062 0.84375 -35.875 C 1.132812 -36.082031 1.640625 -36.1875 2.359375 -36.1875 L 15.0625 -36.1875 L 19.890625 -21.875 L 22.59375 -31 L 22.59375 -20.921875 Z M 4.609375 -25.921875 L 7.53125 -17.265625 L 7.53125 -8.40625 C 7.53125 -7.457031 7.628906 -6.65625 7.828125 -6 C 8.035156 -5.351562 8.347656 -4.820312 8.765625 -4.40625 C 9.078125 -4.082031 9.648438 -3.691406 10.484375 -3.234375 C 11.316406 -2.773438 11.734375 -2.25 11.734375 -1.65625 C 11.734375 -1.082031 11.5625 -0.660156 11.21875 -0.390625 C 10.875 -0.128906 10.328125 0 9.578125 0 L 2.546875 0 C 1.816406 0 1.273438 -0.128906 0.921875 -0.390625 C 0.578125 -0.660156 0.40625 -1.082031 0.40625 -1.65625 C 0.40625 -2.25 0.828125 -2.773438 1.671875 -3.234375 C 2.523438 -3.691406 3.109375 -4.082031 3.421875 -4.40625 C 3.859375 -4.84375 4.164062 -5.375 4.34375 -6 C 4.519531 -6.632812 4.609375 -7.8125 4.609375 -9.53125 Z M 4.609375 -25.921875 "/></g></g></g><g fill="#000000" fill-opacity="1"><g transform="translate(122.656865, 327.733559)"><g><path d="M 21.21875 -7.1875 L 21.21875 -29 C 21.21875 -30.851562 21.039062 -32.085938 20.6875 -32.703125 C 20.34375 -33.328125 19.703125 -33.6875 18.765625 -33.78125 L 18.765625 -36.859375 C 23.640625 -36.460938 27.425781 -34.617188 30.125 -31.328125 C 32.832031 -28.046875 34.1875 -23.632812 34.1875 -18.09375 C 34.1875 -12.550781 32.832031 -8.132812 30.125 -4.84375 C 27.425781 -1.5625 23.640625 0.273438 18.765625 0.671875 L 18.765625 -2.40625 C 19.703125 -2.5 20.34375 -2.851562 20.6875 -3.46875 C 21.039062 -4.09375 21.21875 -5.332031 21.21875 -7.1875 Z M 14.71875 -7.1875 C 14.71875 -5.363281 14.894531 -4.132812 15.25 -3.5 C 15.613281 -2.863281 16.269531 -2.5 17.21875 -2.40625 L 17.21875 0.671875 C 12.363281 0.304688 8.578125 -1.523438 5.859375 -4.828125 C 3.148438 -8.128906 1.796875 -12.550781 1.796875 -18.09375 C 1.796875 -23.632812 3.148438 -28.046875 5.859375 -31.328125 C 8.578125 -34.617188 12.363281 -36.460938 17.21875 -36.859375 L 17.21875 -33.78125 C 16.269531 -33.6875 15.613281 -33.320312 15.25 -32.6875 C 14.894531 -32.050781 14.71875 -30.820312 14.71875 -29 Z M 14.71875 -7.1875 "/></g></g></g><g fill="#000000" fill-opacity="1"><g transform="translate(158.593198, 327.733559)"><g><path d="M 16.8125 0 L 3.578125 0 C 2.796875 0 2.238281 -0.109375 1.90625 -0.328125 C 1.582031 -0.554688 1.421875 -0.9375 1.421875 -1.46875 C 1.421875 -2.1875 1.859375 -2.738281 2.734375 -3.125 C 2.929688 -3.207031 3.078125 -3.273438 3.171875 -3.328125 C 3.554688 -3.523438 3.816406 -3.753906 3.953125 -4.015625 C 4.085938 -4.273438 4.15625 -4.796875 4.15625 -5.578125 L 4.15625 -30.609375 C 4.15625 -31.390625 4.085938 -31.910156 3.953125 -32.171875 C 3.816406 -32.429688 3.554688 -32.660156 3.171875 -32.859375 C 3.078125 -32.910156 2.929688 -32.976562 2.734375 -33.0625 C 1.859375 -33.445312 1.421875 -33.988281 1.421875 -34.6875 C 1.421875 -35.238281 1.582031 -35.625 1.90625 -35.84375 C 2.238281 -36.070312 2.796875 -36.1875 3.578125 -36.1875 L 16.234375 -36.1875 L 16.234375 -5.1875 C 16.234375 -4.644531 16.300781 -4.253906 16.4375 -4.015625 C 16.570312 -3.773438 16.832031 -3.546875 17.21875 -3.328125 C 17.3125 -3.273438 17.460938 -3.207031 17.671875 -3.125 C 18.535156 -2.738281 18.96875 -2.1875 18.96875 -1.46875 C 18.96875 -0.9375 18.804688 -0.554688 18.484375 -0.328125 C 18.160156 -0.109375 17.601562 0 16.8125 0 Z M 17.796875 -19.3125 C 18.929688 -19.394531 19.75 -19.789062 20.25 -20.5 C 20.757812 -21.21875 21.015625 -22.34375 21.015625 -23.875 L 21.015625 -28.546875 C 21.015625 -30.085938 20.757812 -31.210938 20.25 -31.921875 C 19.75 -32.628906 18.929688 -33.023438 17.796875 -33.109375 L 17.796875 -36.1875 C 18.023438 -36.195312 18.269531 -36.207031 18.53125 -36.21875 C 18.789062 -36.226562 19.171875 -36.234375 19.671875 -36.234375 C 24.140625 -36.234375 27.4375 -35.476562 29.5625 -33.96875 C 31.6875 -32.457031 32.75 -30.117188 32.75 -26.953125 C 32.75 -24.398438 32.015625 -22.394531 30.546875 -20.9375 C 29.085938 -19.488281 26.863281 -18.554688 23.875 -18.140625 C 26.894531 -17.859375 29.144531 -17.140625 30.625 -15.984375 C 32.113281 -14.835938 32.859375 -13.226562 32.859375 -11.15625 L 32.859375 -6.5625 C 32.859375 -6.226562 32.898438 -5.976562 32.984375 -5.8125 C 33.066406 -5.65625 33.191406 -5.578125 33.359375 -5.578125 C 33.523438 -5.578125 33.800781 -5.816406 34.1875 -6.296875 C 34.582031 -6.785156 34.988281 -7.03125 35.40625 -7.03125 C 35.820312 -7.03125 36.203125 -6.863281 36.546875 -6.53125 C 36.890625 -6.195312 37.0625 -5.8125 37.0625 -5.375 C 37.0625 -4.03125 36.28125 -2.738281 34.71875 -1.5 C 33.15625 -0.269531 31.265625 0.34375 29.046875 0.34375 C 26.378906 0.34375 24.40625 -0.375 23.125 -1.8125 C 21.851562 -3.257812 21.21875 -5.492188 21.21875 -8.515625 L 21.21875 -11.640625 C 21.21875 -13.085938 20.953125 -14.164062 20.421875 -14.875 C 19.898438 -15.582031 19.023438 -16.035156 17.796875 -16.234375 Z M 17.796875 -19.3125 "/></g></g></g><g fill="#000000" fill-opacity="1"><g transform="translate(195.75577, 327.733559)"><g><path d="M 16.34375 -33.78125 L 16.34375 -36.84375 C 17.875 -36.820312 19.394531 -36.5625 20.90625 -36.0625 C 22.414062 -35.5625 23.1875 -35.3125 23.21875 -35.3125 C 23.601562 -35.3125 24 -35.566406 24.40625 -36.078125 C 24.820312 -36.597656 25.28125 -36.859375 25.78125 -36.859375 C 26.320312 -36.859375 26.707031 -36.71875 26.9375 -36.4375 C 27.164062 -36.15625 27.28125 -35.644531 27.28125 -34.90625 L 27.28125 -26.453125 C 27.28125 -25.515625 27.160156 -24.878906 26.921875 -24.546875 C 26.691406 -24.210938 26.289062 -24.046875 25.71875 -24.046875 C 24.90625 -24.046875 24.289062 -24.765625 23.875 -26.203125 C 23.6875 -26.867188 23.519531 -27.394531 23.375 -27.78125 C 22.71875 -29.394531 21.785156 -30.71875 20.578125 -31.75 C 19.367188 -32.789062 17.957031 -33.46875 16.34375 -33.78125 Z M 15.3125 0.71875 L 15.3125 -2.734375 C 16.851562 -2.828125 17.992188 -3.171875 18.734375 -3.765625 C 19.472656 -4.367188 19.84375 -5.25 19.84375 -6.40625 C 19.84375 -8.320312 17.707031 -10.25 13.4375 -12.1875 L 13.0625 -12.359375 C 8.875 -14.210938 6.03125 -16.046875 4.53125 -17.859375 C 3.039062 -19.679688 2.296875 -21.945312 2.296875 -24.65625 C 2.296875 -28.238281 3.414062 -31.164062 5.65625 -33.4375 C 7.90625 -35.71875 10.816406 -36.859375 14.390625 -36.859375 L 14.8125 -36.859375 L 14.8125 -33.6875 C 13.789062 -33.476562 12.972656 -33.019531 12.359375 -32.3125 C 11.742188 -31.601562 11.4375 -30.773438 11.4375 -29.828125 C 11.4375 -28.003906 13.664062 -26.210938 18.125 -24.453125 L 18.875 -24.15625 C 22.519531 -22.664062 25.132812 -20.9375 26.71875 -18.96875 C 28.3125 -17 29.109375 -14.519531 29.109375 -11.53125 C 29.109375 -7.863281 27.851562 -4.90625 25.34375 -2.65625 C 22.832031 -0.40625 19.488281 0.71875 15.3125 0.71875 Z M 13.78125 -2.65625 L 13.78125 0.65625 C 12.351562 0.632812 10.859375 0.382812 9.296875 -0.09375 C 7.734375 -0.582031 6.851562 -0.828125 6.65625 -0.828125 C 6.21875 -0.828125 5.816406 -0.578125 5.453125 -0.078125 C 5.085938 0.421875 4.65625 0.671875 4.15625 0.671875 C 3.625 0.671875 3.207031 0.484375 2.90625 0.109375 C 2.601562 -0.265625 2.453125 -0.789062 2.453125 -1.46875 L 2.453125 -10.90625 C 2.453125 -11.925781 2.570312 -12.628906 2.8125 -13.015625 C 3.050781 -13.398438 3.484375 -13.59375 4.109375 -13.59375 C 4.941406 -13.59375 5.554688 -12.804688 5.953125 -11.234375 C 6.148438 -10.460938 6.332031 -9.863281 6.5 -9.4375 C 7.15625 -7.71875 8.125 -6.257812 9.40625 -5.0625 C 10.695312 -3.875 12.15625 -3.070312 13.78125 -2.65625 Z M 13.78125 -2.65625 "/></g></g></g><g fill="#000000" fill-opacity="1"><g transform="translate(226.812168, 327.733559)"><g><path d="M 17.5625 -2.921875 L 17.5625 0.671875 C 12.644531 0.410156 8.785156 -1.375 5.984375 -4.6875 C 3.191406 -8 1.796875 -12.46875 1.796875 -18.09375 C 1.796875 -23.71875 3.179688 -28.171875 5.953125 -31.453125 C 8.722656 -34.742188 12.59375 -36.546875 17.5625 -36.859375 L 17.5625 -33.25 C 16.46875 -33.15625 15.675781 -32.753906 15.1875 -32.046875 C 14.707031 -31.335938 14.46875 -30.238281 14.46875 -28.75 L 14.46875 -7.4375 C 14.46875 -5.945312 14.707031 -4.847656 15.1875 -4.140625 C 15.675781 -3.429688 16.46875 -3.023438 17.5625 -2.921875 Z M 19.125 0.671875 L 19.125 -2.921875 C 20.382812 -3.085938 21.539062 -3.429688 22.59375 -3.953125 C 23.644531 -4.484375 24.488281 -5.132812 25.125 -5.90625 C 25.65625 -6.570312 26.15625 -7.535156 26.625 -8.796875 C 27.09375 -10.066406 27.671875 -10.703125 28.359375 -10.703125 C 28.835938 -10.703125 29.226562 -10.53125 29.53125 -10.1875 C 29.832031 -9.851562 29.984375 -9.394531 29.984375 -8.8125 C 29.984375 -7.738281 29.515625 -6.472656 28.578125 -5.015625 C 27.640625 -3.554688 26.460938 -2.34375 25.046875 -1.375 C 24.210938 -0.789062 23.300781 -0.332031 22.3125 0 C 21.332031 0.332031 20.269531 0.554688 19.125 0.671875 Z M 19.125 -33.28125 L 19.125 -36.859375 C 20.488281 -36.753906 21.878906 -36.398438 23.296875 -35.796875 C 24.710938 -35.203125 25.539062 -34.90625 25.78125 -34.90625 C 26.144531 -34.90625 26.535156 -35.207031 26.953125 -35.8125 C 27.367188 -36.425781 27.898438 -36.734375 28.546875 -36.734375 C 29.046875 -36.734375 29.410156 -36.601562 29.640625 -36.34375 C 29.867188 -36.082031 29.984375 -35.554688 29.984375 -34.765625 L 29.984375 -24.953125 C 29.984375 -23.953125 29.859375 -23.222656 29.609375 -22.765625 C 29.359375 -22.316406 28.957031 -22.09375 28.40625 -22.09375 C 27.445312 -22.09375 26.710938 -23.003906 26.203125 -24.828125 C 25.867188 -26.003906 25.539062 -26.953125 25.21875 -27.671875 C 24.457031 -29.410156 23.554688 -30.753906 22.515625 -31.703125 C 21.484375 -32.648438 20.351562 -33.175781 19.125 -33.28125 Z M 19.125 -33.28125 "/></g></g></g><g fill="#000000" fill-opacity="1"><g transform="translate(260.270996, 327.733559)"><g><path d="M 21.21875 -7.1875 L 21.21875 -29 C 21.21875 -30.851562 21.039062 -32.085938 20.6875 -32.703125 C 20.34375 -33.328125 19.703125 -33.6875 18.765625 -33.78125 L 18.765625 -36.859375 C 23.640625 -36.460938 27.425781 -34.617188 30.125 -31.328125 C 32.832031 -28.046875 34.1875 -23.632812 34.1875 -18.09375 C 34.1875 -12.550781 32.832031 -8.132812 30.125 -4.84375 C 27.425781 -1.5625 23.640625 0.273438 18.765625 0.671875 L 18.765625 -2.40625 C 19.703125 -2.5 20.34375 -2.851562 20.6875 -3.46875 C 21.039062 -4.09375 21.21875 -5.332031 21.21875 -7.1875 Z M 14.71875 -7.1875 C 14.71875 -5.363281 14.894531 -4.132812 15.25 -3.5 C 15.613281 -2.863281 16.269531 -2.5 17.21875 -2.40625 L 17.21875 0.671875 C 12.363281 0.304688 8.578125 -1.523438 5.859375 -4.828125 C 3.148438 -8.128906 1.796875 -12.550781 1.796875 -18.09375 C 1.796875 -23.632812 3.148438 -28.046875 5.859375 -31.328125 C 8.578125 -34.617188 12.363281 -36.460938 17.21875 -36.859375 L 17.21875 -33.78125 C 16.269531 -33.6875 15.613281 -33.320312 15.25 -32.6875 C 14.894531 -32.050781 14.71875 -30.820312 14.71875 -29 Z M 14.71875 -7.1875 "/></g></g></g><g fill="#000000" fill-opacity="1"><g transform="translate(296.207329, 327.733559)"><g><path d="M 21.015625 -28.546875 C 21.015625 -30.085938 20.757812 -31.210938 20.25 -31.921875 C 19.75 -32.628906 18.929688 -33.023438 17.796875 -33.109375 L 17.796875 -36.1875 L 18.875 -36.1875 C 23.425781 -36.1875 26.875 -35.238281 29.21875 -33.34375 C 31.570312 -31.445312 32.75 -28.664062 32.75 -25 C 32.75 -21.34375 31.578125 -18.578125 29.234375 -16.703125 C 26.890625 -14.828125 23.4375 -13.890625 18.875 -13.890625 L 17.796875 -13.890625 L 17.796875 -16.96875 C 18.941406 -17.050781 19.765625 -17.441406 20.265625 -18.140625 C 20.765625 -18.835938 21.015625 -19.945312 21.015625 -21.46875 Z M 16.234375 -36.1875 L 16.234375 -4.984375 C 16.234375 -4.191406 16.738281 -3.609375 17.75 -3.234375 C 17.789062 -3.210938 17.835938 -3.191406 17.890625 -3.171875 C 18.523438 -2.960938 18.953125 -2.726562 19.171875 -2.46875 C 19.398438 -2.207031 19.515625 -1.859375 19.515625 -1.421875 C 19.515625 -0.910156 19.332031 -0.546875 18.96875 -0.328125 C 18.601562 -0.109375 17.921875 0 16.921875 0 L 3.578125 0 C 2.796875 0 2.238281 -0.109375 1.90625 -0.328125 C 1.582031 -0.554688 1.421875 -0.9375 1.421875 -1.46875 C 1.421875 -2.1875 1.859375 -2.738281 2.734375 -3.125 C 2.929688 -3.207031 3.078125 -3.273438 3.171875 -3.328125 C 3.554688 -3.523438 3.816406 -3.753906 3.953125 -4.015625 C 4.085938 -4.273438 4.15625 -4.796875 4.15625 -5.578125 L 4.15625 -30.609375 C 4.15625 -31.390625 4.085938 -31.910156 3.953125 -32.171875 C 3.816406 -32.429688 3.554688 -32.660156 3.171875 -32.859375 C 3.078125 -32.910156 2.929688 -32.976562 2.734375 -33.0625 C 1.859375 -33.445312 1.421875 -33.988281 1.421875 -34.6875 C 1.421875 -35.238281 1.582031 -35.625 1.90625 -35.84375 C 2.238281 -36.070312 2.796875 -36.1875 3.578125 -36.1875 Z M 16.234375 -36.1875 "/></g></g></g><g fill="#000000" fill-opacity="1"><g transform="translate(330.742244, 327.733559)"><g><path d="M 17.9375 -16.96875 L 17.9375 -20.296875 C 18.6875 -20.515625 19.257812 -20.785156 19.65625 -21.109375 C 20.050781 -21.429688 20.363281 -21.878906 20.59375 -22.453125 C 20.78125 -22.867188 21 -23.410156 21.25 -24.078125 C 21.664062 -25.242188 22.210938 -25.828125 22.890625 -25.828125 C 23.410156 -25.828125 23.78125 -25.625 24 -25.21875 C 24.226562 -24.820312 24.34375 -24.109375 24.34375 -23.078125 L 24.34375 -13.984375 C 24.34375 -13.054688 24.226562 -12.398438 24 -12.015625 C 23.78125 -11.628906 23.410156 -11.4375 22.890625 -11.4375 C 22.191406 -11.4375 21.632812 -12.019531 21.21875 -13.1875 C 20.988281 -13.820312 20.78125 -14.347656 20.59375 -14.765625 C 20.363281 -15.347656 20.046875 -15.804688 19.640625 -16.140625 C 19.242188 -16.472656 18.675781 -16.75 17.9375 -16.96875 Z M 17.9375 0 L 17.9375 -3.328125 C 19.5625 -3.460938 20.945312 -3.847656 22.09375 -4.484375 C 23.25 -5.128906 24.1875 -6.046875 24.90625 -7.234375 C 25.1875 -7.660156 25.457031 -8.351562 25.71875 -9.3125 C 26.175781 -10.789062 26.796875 -11.53125 27.578125 -11.53125 C 28.222656 -11.53125 28.671875 -11.28125 28.921875 -10.78125 C 29.171875 -10.28125 29.296875 -9.28125 29.296875 -7.78125 L 29.296875 0 Z M 3.578125 0 C 2.796875 0 2.238281 -0.109375 1.90625 -0.328125 C 1.582031 -0.554688 1.421875 -0.9375 1.421875 -1.46875 C 1.421875 -2.1875 1.859375 -2.738281 2.734375 -3.125 C 2.929688 -3.207031 3.078125 -3.273438 3.171875 -3.328125 C 3.554688 -3.523438 3.816406 -3.753906 3.953125 -4.015625 C 4.085938 -4.273438 4.15625 -4.796875 4.15625 -5.578125 L 4.15625 -30.609375 C 4.15625 -31.390625 4.085938 -31.910156 3.953125 -32.171875 C 3.816406 -32.429688 3.554688 -32.660156 3.171875 -32.859375 C 3.078125 -32.910156 2.929688 -32.976562 2.734375 -33.0625 C 1.859375 -33.445312 1.421875 -33.988281 1.421875 -34.6875 C 1.421875 -35.238281 1.582031 -35.625 1.90625 -35.84375 C 2.238281 -36.070312 2.796875 -36.1875 3.578125 -36.1875 L 16.234375 -36.1875 L 16.234375 0 Z M 17.9375 -36.1875 L 28.953125 -36.1875 L 28.953125 -26.546875 C 28.953125 -26.078125 28.820312 -25.703125 28.5625 -25.421875 C 28.300781 -25.140625 27.957031 -25 27.53125 -25 C 26.738281 -25 26.085938 -25.691406 25.578125 -27.078125 C 25.222656 -27.972656 24.894531 -28.648438 24.59375 -29.109375 C 23.894531 -30.191406 22.96875 -31.050781 21.8125 -31.6875 C 20.664062 -32.332031 19.375 -32.722656 17.9375 -32.859375 Z M 17.9375 -36.1875 "/></g></g></g><g fill="#000000" fill-opacity="1"><g transform="translate(53.450087, 348.471271)"><g><path d="M 6.5 -5.46875 L 0.8125 -5.46875 L 0.8125 -7.734375 L 6.5 -7.734375 Z M 6.5 -5.46875 "/></g></g></g><g fill="#000000" fill-opacity="1"><g transform="translate(60.779044, 348.471271)"><g><path d="M 1.765625 0 L 1.765625 -13.578125 L 7.5625 -13.578125 C 8.394531 -13.578125 9.101562 -13.445312 9.6875 -13.1875 C 10.269531 -12.925781 10.707031 -12.550781 11 -12.0625 C 11.300781 -11.582031 11.453125 -11.007812 11.453125 -10.34375 C 11.453125 -9.738281 11.304688 -9.207031 11.015625 -8.75 C 10.722656 -8.289062 10.300781 -7.921875 9.75 -7.640625 L 9.75 -7.453125 C 10.613281 -7.234375 11.273438 -6.828125 11.734375 -6.234375 C 12.203125 -5.648438 12.4375 -4.925781 12.4375 -4.0625 C 12.4375 -2.769531 12.039062 -1.769531 11.25 -1.0625 C 10.46875 -0.351562 9.304688 0 7.765625 0 Z M 7 -8.171875 C 8.257812 -8.171875 8.890625 -8.734375 8.890625 -9.859375 C 8.890625 -10.429688 8.734375 -10.859375 8.421875 -11.140625 C 8.109375 -11.421875 7.632812 -11.5625 7 -11.5625 L 4.453125 -11.5625 L 4.453125 -8.171875 Z M 7.5 -2.125 C 8.976562 -2.125 9.71875 -2.796875 9.71875 -4.140625 C 9.71875 -5.492188 8.976562 -6.171875 7.5 -6.171875 L 4.453125 -6.171875 L 4.453125 -2.125 Z M 7.5 -2.125 "/></g></g></g><g fill="#000000" fill-opacity="1"><g transform="translate(74.0622, 348.471271)"><g><path d="M 1.765625 0 L 1.765625 -13.578125 L 7.21875 -13.578125 C 8.625 -13.578125 9.679688 -13.253906 10.390625 -12.609375 C 11.109375 -11.960938 11.46875 -11.070312 11.46875 -9.9375 C 11.46875 -9.113281 11.257812 -8.4375 10.84375 -7.90625 C 10.425781 -7.382812 9.804688 -6.984375 8.984375 -6.703125 L 8.984375 -6.5 C 9.410156 -6.3125 9.753906 -6.035156 10.015625 -5.671875 C 10.273438 -5.304688 10.523438 -4.765625 10.765625 -4.046875 L 12.125 0 L 9.359375 0 L 8.03125 -4.0625 C 7.894531 -4.46875 7.738281 -4.785156 7.5625 -5.015625 C 7.394531 -5.242188 7.175781 -5.40625 6.90625 -5.5 C 6.644531 -5.601562 6.304688 -5.65625 5.890625 -5.65625 L 4.453125 -5.65625 L 4.453125 0 Z M 6.890625 -7.78125 C 8.191406 -7.78125 8.84375 -8.390625 8.84375 -9.609375 C 8.84375 -10.835938 8.191406 -11.453125 6.890625 -11.453125 L 4.453125 -11.453125 L 4.453125 -7.78125 Z M 6.890625 -7.78125 "/></g></g></g><g fill="#000000" fill-opacity="1"><g transform="translate(86.760153, 348.471271)"><g><path d="M 13.03125 0 L 10.21875 0 L 9.1875 -3.125 L 3.984375 -3.125 L 2.96875 0 L 0.203125 0 L 4.890625 -13.578125 L 8.34375 -13.578125 Z M 6.453125 -10.75 L 4.71875 -5.390625 L 8.453125 -5.390625 L 6.6875 -10.75 Z M 6.453125 -10.75 "/></g></g></g><g fill="#000000" fill-opacity="1"><g transform="translate(99.996864, 348.471271)"><g><path d="M 4.453125 0 L 1.765625 0 L 1.765625 -13.578125 L 4.453125 -13.578125 Z M 4.453125 0 "/></g></g></g><g fill="#000000" fill-opacity="1"><g transform="translate(106.22044, 348.471271)"><g><path d="M 4.375 0 L 1.765625 0 L 1.765625 -13.578125 L 4.84375 -13.578125 L 10.296875 -4.828125 L 10.53125 -4.875 L 10.53125 -13.578125 L 13.125 -13.578125 L 13.125 0 L 10.375 0 L 4.59375 -9.34375 L 4.375 -9.3125 Z M 4.375 0 "/></g></g></g><g fill="#000000" fill-opacity="1"><g transform="translate(121.119868, 348.471271)"><g/></g></g><g fill="#000000" fill-opacity="1"><g transform="translate(125.606416, 348.471271)"><g><path d="M 10.890625 -13.578125 L 10.890625 -11.328125 L 6.96875 -11.328125 L 6.96875 0 L 4.296875 0 L 4.296875 -11.328125 L 0.375 -11.328125 L 0.375 -13.578125 Z M 10.890625 -13.578125 "/></g></g></g><g fill="#000000" fill-opacity="1"><g transform="translate(136.864587, 348.471271)"><g><path d="M 7.203125 0.1875 C 5.328125 0.1875 3.9375 -0.253906 3.03125 -1.140625 C 2.132812 -2.023438 1.6875 -3.34375 1.6875 -5.09375 L 1.6875 -13.578125 L 4.3125 -13.578125 L 4.3125 -5.109375 C 4.3125 -4.117188 4.550781 -3.375 5.03125 -2.875 C 5.507812 -2.382812 6.234375 -2.140625 7.203125 -2.140625 C 9.128906 -2.140625 10.09375 -3.128906 10.09375 -5.109375 L 10.09375 -13.578125 L 12.71875 -13.578125 L 12.71875 -5.09375 C 12.71875 -3.34375 12.265625 -2.023438 11.359375 -1.140625 C 10.460938 -0.253906 9.078125 0.1875 7.203125 0.1875 Z M 7.203125 0.1875 "/></g></g></g><g fill="#000000" fill-opacity="1"><g transform="translate(151.262413, 348.471271)"><g><path d="M 4.234375 0 L 1.765625 0 L 1.765625 -13.578125 L 5.28125 -13.578125 L 8.71875 -3.59375 L 8.90625 -3.59375 L 12.328125 -13.578125 L 15.765625 -13.578125 L 15.765625 0 L 13.21875 0 L 13.21875 -8.984375 L 12.984375 -9.015625 L 9.84375 0 L 7.59375 0 L 4.453125 -9.015625 L 4.234375 -8.984375 Z M 4.234375 0 "/></g></g></g><g fill="#000000" fill-opacity="1"><g transform="translate(168.799894, 348.471271)"><g><path d="M 7.40625 0.1875 C 6.15625 0.1875 5.054688 -0.0625 4.109375 -0.5625 C 3.160156 -1.070312 2.414062 -1.847656 1.875 -2.890625 C 1.332031 -3.929688 1.0625 -5.234375 1.0625 -6.796875 C 1.0625 -8.347656 1.332031 -9.644531 1.875 -10.6875 C 2.414062 -11.726562 3.160156 -12.503906 4.109375 -13.015625 C 5.054688 -13.523438 6.15625 -13.78125 7.40625 -13.78125 C 8.65625 -13.78125 9.753906 -13.523438 10.703125 -13.015625 C 11.648438 -12.515625 12.390625 -11.738281 12.921875 -10.6875 C 13.453125 -9.644531 13.71875 -8.347656 13.71875 -6.796875 C 13.71875 -5.234375 13.453125 -3.925781 12.921875 -2.875 C 12.390625 -1.832031 11.648438 -1.0625 10.703125 -0.5625 C 9.753906 -0.0625 8.65625 0.1875 7.40625 0.1875 Z M 7.40625 -2.140625 C 8.5625 -2.140625 9.441406 -2.507812 10.046875 -3.25 C 10.648438 -3.988281 10.953125 -5.171875 10.953125 -6.796875 C 10.953125 -8.421875 10.648438 -9.601562 10.046875 -10.34375 C 9.441406 -11.082031 8.5625 -11.453125 7.40625 -11.453125 C 6.25 -11.453125 5.363281 -11.082031 4.75 -10.34375 C 4.144531 -9.601562 3.84375 -8.421875 3.84375 -6.796875 C 3.84375 -5.171875 4.144531 -3.988281 4.75 -3.25 C 5.363281 -2.507812 6.25 -2.140625 7.40625 -2.140625 Z M 7.40625 -2.140625 "/></g></g></g><g fill="#000000" fill-opacity="1"><g transform="translate(183.597143, 348.471271)"><g><path d="M 1.765625 0 L 1.765625 -13.578125 L 7.21875 -13.578125 C 8.625 -13.578125 9.679688 -13.253906 10.390625 -12.609375 C 11.109375 -11.960938 11.46875 -11.070312 11.46875 -9.9375 C 11.46875 -9.113281 11.257812 -8.4375 10.84375 -7.90625 C 10.425781 -7.382812 9.804688 -6.984375 8.984375 -6.703125 L 8.984375 -6.5 C 9.410156 -6.3125 9.753906 -6.035156 10.015625 -5.671875 C 10.273438 -5.304688 10.523438 -4.765625 10.765625 -4.046875 L 12.125 0 L 9.359375 0 L 8.03125 -4.0625 C 7.894531 -4.46875 7.738281 -4.785156 7.5625 -5.015625 C 7.394531 -5.242188 7.175781 -5.40625 6.90625 -5.5 C 6.644531 -5.601562 6.304688 -5.65625 5.890625 -5.65625 L 4.453125 -5.65625 L 4.453125 0 Z M 6.890625 -7.78125 C 8.191406 -7.78125 8.84375 -8.390625 8.84375 -9.609375 C 8.84375 -10.835938 8.191406 -11.453125 6.890625 -11.453125 L 4.453125 -11.453125 L 4.453125 -7.78125 Z M 6.890625 -7.78125 "/></g></g></g><g fill="#000000" fill-opacity="1"><g transform="translate(196.295097, 348.471271)"><g/></g></g><g fill="#000000" fill-opacity="1"><g transform="translate(200.781645, 348.471271)"><g><path d="M 4.375 0 L 1.765625 0 L 1.765625 -13.578125 L 4.84375 -13.578125 L 10.296875 -4.828125 L 10.53125 -4.875 L 10.53125 -13.578125 L 13.125 -13.578125 L 13.125 0 L 10.375 0 L 4.59375 -9.34375 L 4.375 -9.3125 Z M 4.375 0 "/></g></g></g><g fill="#000000" fill-opacity="1"><g transform="translate(215.681073, 348.471271)"><g><path d="M 13.03125 0 L 10.21875 0 L 9.1875 -3.125 L 3.984375 -3.125 L 2.96875 0 L 0.203125 0 L 4.890625 -13.578125 L 8.34375 -13.578125 Z M 6.453125 -10.75 L 4.71875 -5.390625 L 8.453125 -5.390625 L 6.6875 -10.75 Z M 6.453125 -10.75 "/></g></g></g><g fill="#000000" fill-opacity="1"><g transform="translate(228.917783, 348.471271)"><g><path d="M 8.078125 0 L 4.828125 0 L 0.234375 -13.578125 L 3.09375 -13.578125 L 6.390625 -3.453125 L 6.625 -3.453125 L 9.875 -13.578125 L 12.65625 -13.578125 Z M 8.078125 0 "/></g></g></g><g fill="#000000" fill-opacity="1"><g transform="translate(241.810804, 348.471271)"><g><path d="M 4.453125 0 L 1.765625 0 L 1.765625 -13.578125 L 4.453125 -13.578125 Z M 4.453125 0 "/></g></g></g><g fill="#000000" fill-opacity="1"><g transform="translate(248.034381, 348.471271)"><g><path d="M 6.59375 0.1875 C 5.457031 0.1875 4.476562 -0.0664062 3.65625 -0.578125 C 2.832031 -1.097656 2.191406 -1.878906 1.734375 -2.921875 C 1.285156 -3.960938 1.0625 -5.253906 1.0625 -6.796875 C 1.0625 -8.335938 1.332031 -9.628906 1.875 -10.671875 C 2.414062 -11.722656 3.164062 -12.503906 4.125 -13.015625 C 5.082031 -13.523438 6.191406 -13.78125 7.453125 -13.78125 C 8.753906 -13.78125 9.863281 -13.535156 10.78125 -13.046875 C 11.695312 -12.566406 12.34375 -11.851562 12.71875 -10.90625 L 10.75 -9.703125 L 10.515625 -9.71875 C 10.234375 -10.320312 9.84375 -10.765625 9.34375 -11.046875 C 8.84375 -11.328125 8.210938 -11.46875 7.453125 -11.46875 C 6.285156 -11.46875 5.390625 -11.097656 4.765625 -10.359375 C 4.148438 -9.617188 3.84375 -8.429688 3.84375 -6.796875 C 3.84375 -5.148438 4.128906 -3.953125 4.703125 -3.203125 C 5.285156 -2.460938 6.144531 -2.09375 7.28125 -2.09375 C 8.257812 -2.09375 8.976562 -2.3125 9.4375 -2.75 C 9.90625 -3.195312 10.140625 -3.859375 10.140625 -4.734375 L 10.140625 -5.3125 L 6.921875 -5.3125 L 6.921875 -7.5 L 12.8125 -7.5 L 12.8125 0 L 10.234375 0 L 10.234375 -1.828125 L 10.046875 -1.84375 C 9.765625 -1.195312 9.335938 -0.695312 8.765625 -0.34375 C 8.203125 0.0078125 7.476562 0.1875 6.59375 0.1875 Z M 6.59375 0.1875 "/></g></g></g><g fill="#000000" fill-opacity="1"><g transform="translate(262.199983, 348.471271)"><g><path d="M 13.03125 0 L 10.21875 0 L 9.1875 -3.125 L 3.984375 -3.125 L 2.96875 0 L 0.203125 0 L 4.890625 -13.578125 L 8.34375 -13.578125 Z M 6.453125 -10.75 L 4.71875 -5.390625 L 8.453125 -5.390625 L 6.6875 -10.75 Z M 6.453125 -10.75 "/></g></g></g><g fill="#000000" fill-opacity="1"><g transform="translate(275.436694, 348.471271)"><g><path d="M 10.890625 -13.578125 L 10.890625 -11.328125 L 6.96875 -11.328125 L 6.96875 0 L 4.296875 0 L 4.296875 -11.328125 L 0.375 -11.328125 L 0.375 -13.578125 Z M 10.890625 -13.578125 "/></g></g></g><g fill="#000000" fill-opacity="1"><g transform="translate(286.694865, 348.471271)"><g><path d="M 7.40625 0.1875 C 6.15625 0.1875 5.054688 -0.0625 4.109375 -0.5625 C 3.160156 -1.070312 2.414062 -1.847656 1.875 -2.890625 C 1.332031 -3.929688 1.0625 -5.234375 1.0625 -6.796875 C 1.0625 -8.347656 1.332031 -9.644531 1.875 -10.6875 C 2.414062 -11.726562 3.160156 -12.503906 4.109375 -13.015625 C 5.054688 -13.523438 6.15625 -13.78125 7.40625 -13.78125 C 8.65625 -13.78125 9.753906 -13.523438 10.703125 -13.015625 C 11.648438 -12.515625 12.390625 -11.738281 12.921875 -10.6875 C 13.453125 -9.644531 13.71875 -8.347656 13.71875 -6.796875 C 13.71875 -5.234375 13.453125 -3.925781 12.921875 -2.875 C 12.390625 -1.832031 11.648438 -1.0625 10.703125 -0.5625 C 9.753906 -0.0625 8.65625 0.1875 7.40625 0.1875 Z M 7.40625 -2.140625 C 8.5625 -2.140625 9.441406 -2.507812 10.046875 -3.25 C 10.648438 -3.988281 10.953125 -5.171875 10.953125 -6.796875 C 10.953125 -8.421875 10.648438 -9.601562 10.046875 -10.34375 C 9.441406 -11.082031 8.5625 -11.453125 7.40625 -11.453125 C 6.25 -11.453125 5.363281 -11.082031 4.75 -10.34375 C 4.144531 -9.601562 3.84375 -8.421875 3.84375 -6.796875 C 3.84375 -5.171875 4.144531 -3.988281 4.75 -3.25 C 5.363281 -2.507812 6.25 -2.140625 7.40625 -2.140625 Z M 7.40625 -2.140625 "/></g></g></g><g fill="#000000" fill-opacity="1"><g transform="translate(301.492129, 348.471271)"><g><path d="M 1.765625 0 L 1.765625 -13.578125 L 7.21875 -13.578125 C 8.625 -13.578125 9.679688 -13.253906 10.390625 -12.609375 C 11.109375 -11.960938 11.46875 -11.070312 11.46875 -9.9375 C 11.46875 -9.113281 11.257812 -8.4375 10.84375 -7.90625 C 10.425781 -7.382812 9.804688 -6.984375 8.984375 -6.703125 L 8.984375 -6.5 C 9.410156 -6.3125 9.753906 -6.035156 10.015625 -5.671875 C 10.273438 -5.304688 10.523438 -4.765625 10.765625 -4.046875 L 12.125 0 L 9.359375 0 L 8.03125 -4.0625 C 7.894531 -4.46875 7.738281 -4.785156 7.5625 -5.015625 C 7.394531 -5.242188 7.175781 -5.40625 6.90625 -5.5 C 6.644531 -5.601562 6.304688 -5.65625 5.890625 -5.65625 L 4.453125 -5.65625 L 4.453125 0 Z M 6.890625 -7.78125 C 8.191406 -7.78125 8.84375 -8.390625 8.84375 -9.609375 C 8.84375 -10.835938 8.191406 -11.453125 6.890625 -11.453125 L 4.453125 -11.453125 L 4.453125 -7.78125 Z M 6.890625 -7.78125 "/></g></g></g><g fill="#000000" fill-opacity="1"><g transform="translate(314.190097, 348.471271)"><g><path d="M 6.5 -5.46875 L 0.8125 -5.46875 L 0.8125 -7.734375 L 6.5 -7.734375 Z M 6.5 -5.46875 "/></g></g></g><path fill="#000000" d="M 279.953125 99.3125 C 276.882812 65.867188 266.160156 63.230469 259.054688 61.492188 C 257.539062 61.121094 256.292969 60.8125 255.4375 60.269531 C 255.210938 58.871094 255.203125 56.871094 255.195312 54.738281 C 255.183594 49.417969 255.175781 43.914062 252.089844 41.5 C 237.332031 29.042969 223.804688 24.191406 211.875 27.097656 C 195.964844 30.972656 189.101562 47.171875 188.820312 47.859375 C 188.710938 48.113281 188.65625 48.386719 188.65625 48.664062 L 188.65625 100.296875 C 188.65625 100.691406 188.769531 101.082031 188.980469 101.414062 C 191.875 106.050781 195.929688 113.75 195.875 116.355469 C 195.871094 116.613281 195.792969 117.230469 195.316406 118.464844 L 195.316406 118.46875 C 193.621094 122.914062 189.074219 129.570312 189.027344 129.636719 C 188.789062 129.984375 188.660156 130.398438 188.65625 130.820312 C 188.65625 131.226562 188.476562 171.621094 188.65625 194.136719 C 188.660156 194.449219 188.730469 194.757812 188.867188 195.039062 C 189.570312 196.5 191.082031 197.804688 192.675781 199.191406 C 192.996094 199.464844 193.316406 199.738281 193.625 200.015625 C 195.597656 201.769531 195.859375 202.421875 195.878906 202.605469 C 195.878906 202.605469 195.882812 202.675781 195.847656 202.855469 C 195.847656 202.859375 195.847656 202.863281 195.847656 202.863281 C 195.84375 202.871094 195.84375 202.871094 195.84375 202.875 C 195.402344 205.183594 191.539062 210.117188 189.207031 212.6875 C 188.851562 213.074219 188.65625 213.585938 188.65625 214.105469 L 188.65625 238.535156 C 188.65625 238.9375 188.769531 239.328125 188.984375 239.664062 C 189.5 240.484375 201.191406 258.609375 218.8125 258.605469 C 219.914062 258.605469 221.046875 258.535156 222.195312 258.382812 C 248.386719 254.128906 251.019531 245.480469 251.625 235.453125 C 251.789062 232.738281 251.929688 230.375 253.175781 228.597656 C 254.328125 228.09375 255.523438 227.546875 256.800781 226.933594 C 281.769531 214.964844 280.59375 202.425781 279.648438 192.347656 C 279.339844 189.042969 279.058594 185.910156 279.773438 183.175781 C 280.777344 182.425781 281.65625 181.617188 282.398438 180.757812 C 291.132812 172.8125 302.714844 160.285156 302.925781 143.09375 C 303.101562 128.9375 295.375 114.210938 279.953125 99.3125 Z M 279.488281 177.699219 C 278.492188 178.605469 277.542969 179.441406 276.667969 180.207031 C 272.820312 182.796875 267.550781 183.691406 262.191406 182.652344 C 261.042969 182.429688 259.9375 183.179688 259.71875 184.324219 C 259.496094 185.472656 260.246094 186.578125 261.390625 186.800781 C 263.113281 187.132812 264.832031 187.296875 266.523438 187.296875 C 269.5625 187.296875 272.488281 186.757812 275.132812 185.730469 C 275.007812 188.007812 275.21875 190.335938 275.445312 192.746094 C 276.34375 202.339844 277.261719 212.261719 255.523438 222.855469 C 251.40625 222.378906 247.167969 220.238281 243.824219 216.894531 C 243 216.066406 241.664062 216.066406 240.839844 216.894531 C 240.015625 217.714844 240.015625 219.054688 240.839844 219.878906 C 243.507812 222.546875 246.683594 224.582031 250 225.824219 C 247.824219 228.636719 247.605469 231.96875 247.410156 235.199219 C 246.96875 242.554688 246.507812 250.15625 221.585938 254.207031 C 206.367188 256.214844 194.929688 240.855469 192.882812 237.894531 L 192.882812 214.910156 C 194.132812 213.484375 196.996094 210.0625 198.710938 206.898438 C 200.445312 208.222656 202.390625 209.125 204.464844 209.523438 C 204.601562 209.550781 204.738281 209.566406 204.871094 209.566406 C 205.863281 209.566406 206.746094 208.863281 206.941406 207.855469 C 207.164062 206.710938 206.414062 205.601562 205.269531 205.378906 C 203.359375 205.007812 201.59375 203.988281 200.09375 202.46875 C 200.089844 202.40625 200.09375 202.339844 200.09375 202.28125 C 199.917969 200.132812 198.113281 198.355469 196.429688 196.863281 C 196.105469 196.574219 195.773438 196.285156 195.441406 195.996094 C 194.511719 195.191406 193.386719 194.21875 192.875 193.53125 C 192.710938 172.515625 192.855469 136.707031 192.878906 131.480469 C 193.929688 129.910156 196.933594 125.28125 198.695312 121.328125 L 213.160156 121.328125 C 214.328125 121.328125 215.273438 120.386719 215.273438 119.21875 C 215.273438 118.050781 214.324219 117.109375 213.160156 117.109375 L 200.042969 117.109375 C 200.074219 116.878906 200.09375 116.652344 200.097656 116.441406 C 200.195312 111.96875 194.660156 102.589844 192.882812 99.695312 L 192.882812 49.113281 C 193.9375 46.820312 200.238281 34.277344 212.878906 31.199219 C 223.410156 28.632812 235.691406 33.183594 249.429688 44.777344 C 250.957031 45.972656 250.96875 51.253906 250.972656 54.75 C 250.980469 56.835938 250.992188 58.800781 251.207031 60.449219 L 243.859375 75.300781 C 243.339844 76.347656 243.769531 77.613281 244.816406 78.132812 C 245.117188 78.28125 245.4375 78.351562 245.75 78.351562 C 246.527344 78.351562 247.273438 77.917969 247.644531 77.171875 L 254.011719 64.300781 C 255.246094 64.902344 256.621094 65.242188 258.046875 65.59375 C 264.210938 67.101562 272.59375 69.167969 275.566406 97.816406 L 244.816406 97.816406 C 236.546875 90.578125 227.59375 94.949219 223.929688 98.390625 C 223.082031 99.191406 223.035156 100.527344 223.835938 101.375 C 224.25 101.816406 224.8125 102.039062 225.375 102.039062 C 225.894531 102.039062 226.414062 101.851562 226.820312 101.46875 C 227.113281 101.195312 233.386719 95.4375 240.25 99.644531 C 240.238281 99.738281 240.222656 99.832031 240.222656 99.929688 C 240.222656 101.097656 241.164062 102.039062 242.332031 102.039062 L 243.125 102.039062 C 243.4375 102.367188 243.757812 102.679688 244.058594 103.042969 C 245.753906 105.679688 242.640625 112.300781 240.136719 117.632812 C 238 122.175781 235.980469 126.464844 235.847656 129.824219 C 235.695312 133.703125 240.710938 141.953125 241.71875 143.566406 C 242.121094 144.207031 242.808594 144.558594 243.511719 144.558594 C 243.894531 144.558594 244.28125 144.457031 244.628906 144.238281 C 245.617188 143.621094 245.917969 142.320312 245.300781 141.328125 C 242.734375 137.210938 240 131.703125 240.070312 129.988281 C 240.164062 127.488281 242.09375 123.390625 243.957031 119.429688 C 246.925781 113.117188 249.964844 106.625 248.234375 102.039062 L 276.695312 102.039062 C 291.457031 116.203125 298.867188 129.996094 298.707031 143.039062 C 298.511719 158.632812 287.644531 170.289062 279.488281 177.699219 Z M 279.488281 177.699219 " fill-opacity="1" fill-rule="nonzero"/><path fill="#000000" d="M 227.488281 55.375 C 227.488281 54.210938 226.542969 53.265625 225.375 53.265625 C 213.597656 53.265625 204.015625 60.832031 204.015625 70.132812 C 204.015625 71.300781 204.964844 72.246094 206.128906 72.246094 C 207.296875 72.246094 208.242188 71.300781 208.242188 70.132812 C 208.242188 63.160156 215.925781 57.488281 225.375 57.488281 C 226.542969 57.488281 227.488281 56.542969 227.488281 55.375 Z M 227.488281 55.375 " fill-opacity="1" fill-rule="nonzero"/><path fill="#000000" d="M 246.203125 174.960938 C 239.609375 174.960938 233.710938 177.332031 229.785156 181.050781 C 230.050781 175.730469 229.699219 170.398438 227.226562 166.824219 C 227.195312 166.777344 227.160156 166.730469 227.125 166.683594 C 223.777344 162.621094 219.933594 160.425781 215.707031 160.152344 C 208.972656 159.722656 203.882812 164.4375 203.671875 164.640625 C 202.820312 165.4375 202.78125 166.773438 203.578125 167.621094 C 204.375 168.472656 205.714844 168.515625 206.5625 167.714844 C 206.601562 167.679688 210.601562 164.042969 215.4375 164.367188 C 218.429688 164.558594 221.246094 166.21875 223.804688 169.296875 C 226.46875 173.261719 225.644531 181.3125 224.984375 187.792969 C 224.757812 189.984375 224.546875 192.054688 224.472656 193.851562 C 224.304688 198.214844 232.261719 202.371094 235.691406 203.953125 C 235.980469 204.085938 236.277344 204.148438 236.574219 204.148438 C 237.375 204.148438 238.136719 203.695312 238.492188 202.921875 C 238.984375 201.863281 238.523438 200.609375 237.464844 200.121094 C 233.097656 198.101562 228.917969 195.167969 228.695312 194.015625 C 228.707031 193.664062 228.730469 193.292969 228.757812 192.910156 C 228.945312 192.59375 229.066406 192.226562 229.066406 191.828125 C 229.066406 184.855469 236.75 179.183594 246.199219 179.183594 C 247.367188 179.183594 248.3125 178.238281 248.3125 177.070312 C 248.3125 175.90625 247.367188 174.960938 246.203125 174.960938 Z M 246.203125 174.960938 " fill-opacity="1" fill-rule="nonzero"/><path fill="#000000" d="M 268.058594 132.257812 C 267.234375 133.082031 267.234375 134.417969 268.058594 135.246094 C 272.988281 140.175781 271.5625 149.621094 264.882812 156.300781 C 264.058594 157.128906 264.058594 158.464844 264.882812 159.289062 C 265.296875 159.699219 265.835938 159.90625 266.378906 159.90625 C 266.914062 159.90625 267.457031 159.699219 267.871094 159.289062 C 276.195312 150.964844 277.621094 138.835938 271.046875 132.257812 C 270.21875 131.433594 268.882812 131.433594 268.058594 132.257812 Z M 268.058594 132.257812 " fill-opacity="1" fill-rule="nonzero"/><path fill="#000000" d="M 177.152344 120.242188 L 161.949219 120.242188 C 160.722656 120.242188 159.730469 119.246094 159.730469 118.019531 C 159.730469 116.792969 160.722656 115.800781 161.949219 115.800781 L 175.738281 115.800781 C 175.707031 115.558594 175.683594 115.320312 175.679688 115.097656 C 175.578125 110.398438 181.398438 100.539062 183.269531 97.496094 L 183.269531 44.324219 C 182.152344 41.917969 175.472656 28.695312 162.210938 25.484375 C 151.144531 22.800781 138.246094 27.589844 123.886719 39.710938 C 122.214844 41.019531 122.203125 46.574219 122.195312 50.246094 C 122.191406 52.4375 122.175781 54.503906 121.953125 56.238281 L 129.675781 71.855469 C 130.21875 72.953125 129.769531 74.285156 128.667969 74.828125 C 128.355469 74.984375 128.019531 75.058594 127.6875 75.058594 C 126.871094 75.058594 126.082031 74.605469 125.695312 73.824219 L 119.003906 60.289062 C 117.703125 60.921875 116.257812 61.28125 114.757812 61.644531 C 108.277344 63.234375 99.46875 65.40625 96.34375 95.523438 L 128.667969 95.523438 C 137.363281 87.917969 146.773438 92.503906 150.628906 96.128906 C 151.519531 96.964844 151.5625 98.371094 150.722656 99.261719 C 150.289062 99.730469 149.699219 99.964844 149.105469 99.964844 C 148.5625 99.964844 148.019531 99.765625 147.589844 99.363281 C 146.808594 98.640625 140.464844 93.121094 133.46875 97.4375 C 133.484375 97.539062 133.5 97.640625 133.5 97.746094 C 133.5 98.972656 132.507812 99.964844 131.28125 99.964844 L 130.445312 99.964844 C 130.117188 100.308594 129.78125 100.640625 129.464844 101.015625 C 127.679688 103.789062 130.957031 110.75 133.589844 116.355469 C 135.835938 121.132812 137.957031 125.640625 138.097656 129.167969 C 138.253906 133.25 132.984375 141.917969 131.921875 143.617188 C 131.503906 144.292969 130.78125 144.660156 130.039062 144.660156 C 129.636719 144.660156 129.234375 144.554688 128.867188 144.324219 C 127.828125 143.675781 127.507812 142.308594 128.160156 141.265625 C 130.859375 136.9375 133.730469 131.144531 133.660156 129.34375 C 133.558594 126.714844 131.53125 122.410156 129.574219 118.242188 C 126.453125 111.613281 123.257812 104.78125 125.074219 99.964844 L 95.15625 99.964844 C 79.636719 114.855469 71.847656 129.351562 72.019531 143.0625 C 72.222656 159.453125 83.644531 171.707031 92.21875 179.5 L 92.222656 179.5 C 93.269531 180.449219 94.265625 181.328125 95.183594 182.136719 C 99.230469 184.859375 104.769531 185.796875 110.402344 184.707031 C 111.609375 184.472656 112.769531 185.261719 113.003906 186.464844 C 113.234375 187.667969 112.449219 188.832031 111.246094 189.066406 C 109.433594 189.414062 107.625 189.589844 105.847656 189.589844 C 102.65625 189.589844 99.578125 189.019531 96.800781 187.9375 C 96.933594 190.335938 96.707031 192.78125 96.46875 195.316406 C 95.523438 205.402344 94.558594 215.832031 117.410156 226.96875 C 121.742188 226.46875 126.195312 224.214844 129.710938 220.703125 C 130.578125 219.832031 131.984375 219.832031 132.851562 220.703125 C 133.71875 221.566406 133.71875 222.972656 132.851562 223.839844 C 130.042969 226.648438 126.703125 228.785156 123.21875 230.089844 C 125.507812 233.050781 125.734375 236.550781 125.941406 239.945312 C 126.40625 247.675781 126.890625 255.667969 153.15625 259.941406 C 169.113281 262.042969 181.109375 245.890625 183.265625 242.777344 L 183.265625 218.617188 C 181.953125 217.113281 178.941406 213.519531 177.136719 210.195312 C 175.3125 211.585938 173.269531 212.535156 171.085938 212.957031 C 170.945312 212.984375 170.800781 212.996094 170.660156 212.996094 C 169.621094 212.996094 168.691406 212.261719 168.484375 211.199219 C 168.253906 209.996094 169.039062 208.832031 170.242188 208.597656 C 172.25 208.210938 174.109375 207.136719 175.6875 205.535156 C 175.6875 205.476562 175.683594 205.40625 175.6875 205.347656 C 175.867188 203.082031 177.765625 201.214844 179.53125 199.644531 C 179.875 199.339844 180.222656 199.035156 180.574219 198.734375 C 181.550781 197.890625 182.734375 196.863281 183.269531 196.140625 C 183.441406 174.046875 183.292969 136.402344 183.269531 130.910156 C 182.167969 129.257812 179.007812 124.394531 177.152344 120.242188 Z M 112.808594 159.289062 C 112.398438 159.699219 111.855469 159.90625 111.316406 159.90625 C 110.777344 159.90625 110.234375 159.699219 109.824219 159.289062 C 101.496094 150.964844 100.070312 138.835938 106.648438 132.257812 C 107.472656 131.433594 108.808594 131.433594 109.632812 132.257812 C 110.457031 133.082031 110.457031 134.417969 109.632812 135.246094 C 104.703125 140.175781 106.128906 149.621094 112.808594 156.300781 C 113.632812 157.128906 113.632812 158.460938 112.808594 159.289062 Z M 150.207031 55.375 C 150.207031 54.210938 151.152344 53.265625 152.320312 53.265625 C 164.09375 53.265625 173.675781 60.832031 173.675781 70.132812 C 173.675781 71.300781 172.730469 72.246094 171.5625 72.246094 C 170.398438 72.246094 169.453125 71.300781 169.453125 70.132812 C 169.453125 63.160156 161.765625 57.488281 152.320312 57.488281 C 151.152344 57.488281 150.207031 56.542969 150.207031 55.375 Z M 171.332031 226.96875 C 172.15625 226.144531 173.492188 226.144531 174.316406 226.96875 C 175.140625 227.792969 175.140625 229.128906 174.316406 229.953125 C 170.351562 233.921875 165.414062 236.46875 160.417969 237.128906 C 159.5625 237.242188 158.71875 237.296875 157.894531 237.296875 C 153.714844 237.296875 150.015625 235.855469 147.285156 233.128906 C 146.460938 232.304688 146.460938 230.96875 147.285156 230.144531 C 148.113281 229.320312 149.449219 229.320312 150.273438 230.144531 C 152.585938 232.457031 155.988281 233.453125 159.867188 232.941406 C 163.949219 232.402344 168.019531 230.28125 171.332031 226.96875 Z M 174.113281 167.621094 C 173.316406 168.472656 171.984375 168.515625 171.132812 167.722656 C 171.070312 167.664062 167.074219 164.03125 162.222656 164.371094 C 159.238281 164.570312 156.433594 166.226562 153.886719 169.296875 C 151.222656 173.261719 152.046875 181.3125 152.710938 187.796875 C 152.933594 189.984375 153.144531 192.058594 153.21875 193.851562 C 153.386719 198.214844 145.429688 202.371094 142 203.953125 C 141.710938 204.085938 141.410156 204.148438 141.113281 204.148438 C 140.316406 204.148438 139.554688 203.695312 139.199219 202.921875 C 138.707031 201.863281 139.167969 200.609375 140.226562 200.121094 C 144.59375 198.101562 148.773438 195.167969 149 193.964844 C 148.984375 193.636719 148.964844 193.277344 148.9375 192.917969 C 148.746094 192.597656 148.625 192.226562 148.625 191.828125 C 148.625 184.855469 140.941406 179.183594 131.492188 179.183594 C 130.324219 179.183594 129.378906 178.238281 129.378906 177.074219 C 129.378906 175.90625 130.324219 174.960938 131.492188 174.960938 C 138.082031 174.960938 143.984375 177.335938 147.90625 181.050781 C 147.640625 175.730469 147.988281 170.398438 150.460938 166.828125 C 150.496094 166.777344 150.53125 166.730469 150.566406 166.6875 C 153.914062 162.621094 157.757812 160.425781 161.984375 160.15625 C 168.730469 159.726562 173.808594 164.4375 174.023438 164.640625 C 174.871094 165.4375 174.910156 166.773438 174.113281 167.621094 Z M 174.113281 167.621094 " fill-opacity="1" fill-rule="nonzero"/></svg>